<?xml version="1.0" standalone="no"?>
<!DOCTYPE svg PUBLIC "-//W3C//DTD SVG 20010904//EN"
 "http://www.w3.org/TR/2001/REC-SVG-20010904/DTD/svg10.dtd">
<svg version="1.0" xmlns="http://www.w3.org/2000/svg"
 width="260.000000pt" height="260.000000pt" viewBox="0 0 260.000000 260.000000"
 preserveAspectRatio="xMidYMid meet">
<metadata>
Created by potrace 1.11, written by Peter Selinger 2001-2013
</metadata>
<g transform="translate(0.000000,260.000000) scale(0.100000,-0.100000)"
fill="#000000" stroke="none">
<path d="M1132 2590 c-301 -43 -565 -179 -775 -400 -171 -180 -278 -385 -333
-641 -26 -118 -26 -380 0 -498 59 -273 167 -474 360 -667 193 -193 394 -301
667 -360 118 -26 380 -26 498 0 273 59 474 167 667 360 193 193 301 394 360
667 14 62 18 127 18 249 0 122 -4 187 -18 249 -59 273 -167 474 -360 667 -190
189 -384 296 -646 355 -98 22 -340 33 -438 19z m-169 -765 c31 -8 75 -26 96
-41 139 -91 149 -312 20 -428 -27 -25 -66 -50 -87 -57 -39 -12 -65 -29 -44
-29 29 0 91 -76 189 -234 58 -94 117 -188 130 -208 l23 -38 -73 0 -73 0 -94
158 c-161 272 -183 292 -318 292 l-72 0 0 -225 0 -225 -60 0 -60 0 0 525 0
525 183 0 c130 0 199 -4 240 -15z m599 -229 l3 -244 210 244 210 243 78 1 78
0 -226 -250 c-200 -222 -225 -253 -214 -268 14 -18 50 -58 313 -354 l157 -178
-88 1 -88 0 -215 255 -215 255 -3 -255 -2 -256 -60 0 -60 0 0 525 0 525 60 0
60 0 2 -244z m244 -951 c-20 -30 -47 -73 -61 -95 -23 -37 -29 -40 -70 -40
l-45 0 26 58 c14 31 33 74 41 95 l15 37 64 0 65 0 -35 -55z"/>
<path d="M660 1540 l0 -190 104 0 c56 0 118 5 137 11 143 48 188 231 80 322
-44 37 -90 47 -213 47 l-108 0 0 -190z"/>
</g>
</svg>
