<?xml version="1.0" encoding="utf-8"?>
<!-- Generator: Adobe Illustrator 16.0.0, SVG Export Plug-In . SVG Version: 6.00 Build 0)  -->
<!DOCTYPE svg PUBLIC "-//W3C//DTD SVG 1.1//EN" "http://www.w3.org/Graphics/SVG/1.1/DTD/svg11.dtd">
<svg version="1.1" id="Layer_1" xmlns="http://www.w3.org/2000/svg" xmlns:xlink="http://www.w3.org/1999/xlink" x="0px" y="0px"
	 width="220px" height="31px" viewBox="0 0 220 31" enable-background="new 0 0 220 31" xml:space="preserve">
<g>
	<g>
		<g>
			<path fill="#EF3E33" d="M17.313,1.16h5.944c-7.344,13.113,11.179,12.292,5.612,29.093l-6.059,0.018
				C30.243,17.12,11.869,18.802,17.313,1.16z"/>
			<path fill="#EF3E33" d="M29.558,1.135c-5.285,15.012,13.196,13.206,5.468,29.178C40.064,15.552,21.114,15.07,29.558,1.135z"/>
			<path fill="#EF3E33" d="M26.227,1.125c-5.282,15.013,13.196,13.209,5.467,29.181C36.733,15.542,17.781,15.06,26.227,1.125z"/>
		</g>
		<path fill="#007AC2" d="M11.318,1.156H0v29.207l5.044,0.006L5.028,16.88l3.247,13.482h5.167L10.53,17.587
			C10.53,17.587,16.805,9.646,11.318,1.156z M5.028,15.89V1.435c0,0,3.482,2.035,3.45,7.251C8.449,13.916,5.028,15.89,5.028,15.89z"
			/>
	</g>
	<g>
		<path fill="#231F20" d="M52.556,1.198l2.566,6.546H54.45L53.657,5.71h-2.986L49.89,7.745h-0.672l2.636-6.546H52.556z
			 M53.442,5.177l-1.268-3.358l-1.311,3.358H53.442z"/>
		<path fill="#231F20" d="M56.558,1.198v3.518l3.807-3.518h0.842l-2.928,2.707l3.068,3.839h-0.813l-2.716-3.409l-1.261,1.163v2.246
			h-0.625V1.198H56.558z"/>
		<path fill="#231F20" d="M64.645,1.589c-1.734,0-2.466,1.454-2.466,2.887c0,1.423,0.731,2.877,2.466,2.877
			c1.214,0,1.986-0.931,2.106-2.105h0.621c-0.181,1.604-1.193,2.637-2.728,2.637c-2.065,0-3.087-1.624-3.087-3.409
			c0-1.794,1.021-3.419,3.087-3.419c1.244,0,2.467,0.747,2.638,2.126h-0.627C66.439,2.17,65.597,1.589,64.645,1.589z"/>
		<path fill="#231F20" d="M69.217,1.198v6.546h-0.628V1.198H69.217z"/>
		<path fill="#231F20" d="M74.066,1.198V5.92c0,1.333-0.499,1.965-1.913,1.965c-1.504,0-1.835-1.103-1.825-2.235h0.624
			c0.017,0.558-0.032,1.704,1.262,1.704c0.972,0,1.222-0.501,1.222-1.694V1.198H74.066z"/>
		<path fill="#231F20" d="M76.162,1.198v4.05c-0.01,1.524,0.712,2.105,1.915,2.105c1.214,0,1.936-0.581,1.925-2.105v-4.05h0.62v4.19
			c0,1.354-0.721,2.497-2.545,2.497c-1.813,0-2.535-1.143-2.535-2.497v-4.19H76.162z"/>
		<path fill="#231F20" d="M87.3,7.354c0.692,0,1.733-0.381,1.733-1.333c0-0.742-0.742-1.032-1.342-1.184l-1.465-0.35
			c-0.773-0.201-1.474-0.561-1.474-1.585c0-0.641,0.411-1.845,2.256-1.845c1.293,0,2.425,0.703,2.42,2.036h-0.625
			c-0.031-0.993-0.862-1.504-1.784-1.504c-0.853,0-1.646,0.331-1.646,1.303c0,0.623,0.462,0.873,0.993,1.002l1.595,0.391
			c0.929,0.25,1.692,0.652,1.692,1.724c0,0.451-0.181,1.875-2.494,1.875c-1.555,0-2.688-0.703-2.617-2.297h0.621
			C85.134,6.942,86.105,7.354,87.3,7.354z"/>
		<path fill="#231F20" d="M93.484,1.198l2.566,6.546h-0.672L94.585,5.71h-2.986l-0.78,2.035h-0.673l2.637-6.546H93.484z
			 M94.37,5.177l-1.268-3.358l-1.311,3.358H94.37z"/>
		<path fill="#231F20" d="M99.633,1.198c1.099,0,2.102,0.391,2.102,1.604c0,0.692-0.462,1.323-1.134,1.472v0.011
			c0.843,0.11,1.384,0.741,1.384,1.601c0,0.625-0.22,1.858-2.352,1.858h-2.771V1.198H99.633z M99.633,4.065
			c0.998,0,1.48-0.49,1.48-1.102c0-0.823-0.513-1.233-1.48-1.233h-2.148v2.335H99.633z M99.633,7.213
			c0.929,0.011,1.719-0.3,1.719-1.343c0-0.843-0.631-1.273-1.719-1.273h-2.148v2.616H99.633z"/>
		<path fill="#231F20" d="M103.868,1.198v6.546h-0.62V1.198H103.868z"/>
		<path fill="#231F20" d="M109.975,1.198V1.73h-3.9v2.365h3.648v0.531h-3.648v2.587h3.949v0.532h-4.572V1.198H109.975z"/>
		<path fill="#231F20" d="M113.371,1.198c1.975,0.051,3.006,1.134,3.006,3.278c0,2.146-1.031,3.229-3.006,3.269h-2.254V1.198
			H113.371z M113.072,7.213c1.873,0.011,2.686-0.79,2.686-2.737c0-1.954-0.813-2.757-2.686-2.746h-1.334v5.483H113.072z"/>
		<path fill="#231F20" d="M120.619,1.198c1.085,0,1.973,0.521,1.973,1.704c0,0.833-0.43,1.504-1.271,1.675v0.02
			c0.852,0.107,1.102,0.691,1.154,1.474c0.029,0.451,0.029,1.342,0.31,1.673h-0.69c-0.169-0.25-0.169-0.742-0.171-1.012
			c-0.062-0.923-0.142-1.936-1.313-1.896h-2.365v2.908h-0.62V1.198H120.619z M120.568,4.306c0.752,0,1.402-0.472,1.402-1.273
			c0-0.799-0.476-1.303-1.402-1.303h-2.324v2.576H120.568z"/>
		<path fill="#231F20" d="M123.256,0.277h2.106v0.41h-2.106V0.277z M124.619,1.198v6.546h-0.621V1.198H124.619z"/>
		<path fill="#231F20" d="M128.98,1.198c1.103,0,2.094,0.391,2.094,1.604c0,0.692-0.461,1.323-1.145,1.472v0.011
			c0.844,0.11,1.395,0.741,1.395,1.601c0,0.625-0.219,1.858-2.344,1.858h-2.767V1.198H128.98z M128.98,4.065
			c0.99,0,1.473-0.49,1.473-1.102c0-0.823-0.512-1.233-1.473-1.233h-2.146v2.335H128.98z M128.98,7.213
			c0.91,0.011,1.725-0.3,1.725-1.343c0-0.843-0.633-1.273-1.725-1.273h-2.146v2.616H128.98z"/>
		<path fill="#231F20" d="M135.154,1.198l2.566,6.546h-0.672l-0.793-2.035h-2.977l-0.803,2.035h-0.671l2.646-6.546H135.154z
			 M136.047,5.177l-1.264-3.358l-1.314,3.358H136.047z"/>
	</g>
	<g>
		<path fill="#231F20" d="M56.708,14.643c3.432,0,5.196,1.592,5.196,4.241c0,3.014-2.096,3.799-2.599,3.971v0.047
			c0.944,0.125,2.329,0.836,2.329,3.311c0,1.84,0.27,3.508,0.858,4.143h-2.942c-0.417-0.686-0.417-1.543-0.417-2.303
			c0-2.895-0.6-4.168-3.125-4.168h-4.058v6.471h-2.745V14.643H56.708z M56.462,21.8c1.741,0,2.685-0.857,2.685-2.525
			c0-1.986-1.299-2.378-2.721-2.378h-4.475V21.8H56.462z"/>
		<path fill="#231F20" d="M64.062,11.959h5.063v1.433h-5.063V11.959z M67.996,14.643v15.711H65.25V14.643H67.996z"/>
		<path fill="#231F20" d="M83.859,30.354l-0.418-1.855c-1.472,1.686-2.819,2.225-4.731,2.225c-4.707,0-7.526-3.729-7.526-8.236
			c0-4.486,2.819-8.222,7.526-8.222c3.433,0,6.313,1.826,6.74,5.378h-2.685c-0.269-2.086-2.07-3.139-4.056-3.139
			c-3.359,0-4.769,2.971-4.769,5.982c0,3.014,1.409,6.007,4.769,6.007c2.819,0.022,4.363-1.669,4.4-4.315H78.93v-2.109h6.692v8.285
			H83.859z"/>
		<path fill="#231F20" d="M96.299,14.643l6.043,15.711H99.4l-1.483-4.166h-6.265l-1.473,4.166h-2.841l6.03-15.711H96.299z
			 M97.194,24.104l-2.354-6.766h-0.023h-0.038l-2.377,6.766H97.194z"/>
		<path fill="#231F20" d="M110.176,28.494c2.426,0,3.332-1.204,3.332-2.38c0-1.225-0.662-1.698-1.299-1.936
			c-1.104-0.418-2.532-0.711-4.684-1.301c-2.695-0.734-3.487-2.352-3.487-3.994c0-3.139,2.899-4.619,5.743-4.619
			c3.285,0,6.031,1.75,6.031,5.009h-2.746c-0.146-2.01-1.496-2.77-3.39-2.77c-1.289,0-2.886,0.467-2.886,2.059
			c0,1.104,0.737,1.717,1.863,2.012c0.244,0.072,3.725,0.98,4.535,1.225c2.074,0.615,3.064,2.379,3.064,3.996
			c0,3.529-3.139,4.928-6.252,4.928c-3.578,0-6.496-1.717-6.558-5.613h2.759C106.203,27.536,107.969,28.494,110.176,28.494z"/>
		<path fill="#231F20" d="M131.65,28.494c2.426,0,3.332-1.204,3.332-2.38c0-1.225-0.662-1.698-1.299-1.936
			c-1.104-0.418-2.524-0.711-4.684-1.301c-2.695-0.734-3.479-2.352-3.479-3.994c0-3.139,2.893-4.619,5.736-4.619
			c3.283,0,6.029,1.75,6.029,5.009h-2.746c-0.146-2.01-1.494-2.77-3.382-2.77c-1.284,0-2.894,0.467-2.894,2.059
			c0,1.104,0.75,1.717,1.865,2.012c0.244,0.072,3.725,0.98,4.535,1.225c2.08,0.615,3.063,2.379,3.063,3.996
			c0,3.529-3.125,4.928-6.252,4.928c-3.578,0-6.494-1.717-6.546-5.613h2.747C127.678,27.536,129.445,28.494,131.65,28.494z"/>
		<path fill="#231F20" d="M143.418,14.643v15.711h-2.746V14.643H143.418z"/>
		<path fill="#231F20" d="M150.086,14.643v13.333h7.99v2.379H147.34V14.643H150.086z"/>
		<path fill="#231F20" d="M169.207,14.643v2.379h-4.978v13.332h-2.771V17.022h-4.95v-2.379H169.207z"/>
		<path fill="#231F20" d="M174.158,14.643v9.143c0,2.134,0.146,4.561,3.701,4.561c3.578,0,3.701-2.427,3.701-4.561v-9.143h2.746
			v10.051c0,4.021-2.572,6.029-6.447,6.029c-3.873,0-6.447-2.008-6.447-6.029V14.643H174.158z"/>
		<path fill="#231F20" d="M191.857,14.643l4.338,12.305h0.05l4.216-12.305h3.826v15.711h-2.623V18.22h-0.029l-4.359,12.135h-2.279
			l-4.339-12.135h-0.05v12.135h-2.625V14.643H191.857z"/>
		<path fill="#231F20" d="M213.92,28.494c2.428,0,3.334-1.204,3.334-2.38c0-1.225-0.66-1.698-1.299-1.936
			c-1.102-0.418-2.524-0.711-4.683-1.301c-2.696-0.734-3.481-2.352-3.481-3.994c0-3.139,2.893-4.619,5.736-4.619
			c3.285,0,6.031,1.75,6.031,5.009h-2.746c-0.139-2.01-1.496-2.77-3.382-2.77c-1.275,0-2.894,0.467-2.894,2.059
			c0,1.104,0.759,1.717,1.863,2.012c0.246,0.072,3.727,0.98,4.535,1.225c2.083,0.615,3.064,2.379,3.064,3.996
			c0,3.529-3.116,4.928-6.25,4.928c-3.582,0-6.498-1.717-6.546-5.613h2.745C209.949,27.536,211.728,28.494,213.92,28.494z"/>
	</g>
</g>
</svg>
